<svg id="visual" viewBox="0 0 900 600" width="900" height="600" xmlns="http://www.w3.org/2000/svg" xmlns:xlink="http://www.w3.org/1999/xlink" version="1.1"><rect x="0" y="0" width="900" height="600" fill="#002233"></rect><path d="M0 382L37.5 386.5C75 391 150 400 225 384.8C300 369.7 375 330.3 450 314.8C525 299.3 600 307.7 675 325.7C750 343.7 825 371.3 862.5 385.2L900 399L900 601L862.5 601C825 601 750 601 675 601C600 601 525 601 450 601C375 601 300 601 225 601C150 601 75 601 37.5 601L0 601Z" fill="#0046ae" stroke-linecap="round" stroke-linejoin="miter"></path></svg>